<?xml version="1.0" standalone="no"?>
<!DOCTYPE svg PUBLIC "-//W3C//DTD SVG 20010904//EN"
 "http://www.w3.org/TR/2001/REC-SVG-20010904/DTD/svg10.dtd">
<svg version="1.0" xmlns="http://www.w3.org/2000/svg"
 width="566.000000pt" height="566.000000pt" viewBox="0 0 566.000000 566.000000"
 preserveAspectRatio="xMidYMid meet">
<metadata>
Created by potrace 1.11, written by Peter Selinger 2001-2013
</metadata>
<g transform="translate(0.000000,566.000000) scale(0.100000,-0.100000)"
fill="#000000" stroke="none">
<path d="M3064 5019 c-42 -12 -100 -67 -113 -108 -8 -24 -11 -301 -11 -903 0
-852 0 -870 20 -908 41 -80 155 -119 251 -85 21 8 39 12 39 10 0 -2 25 5 55
15 453 156 748 564 729 1010 -2 52 -6 106 -9 120 -2 14 -7 39 -11 55 -46 235
-210 473 -436 633 -111 78 -360 173 -447 171 -20 0 -50 -5 -67 -10z"/>
<path d="M1480 4342 c-286 -23 -558 -210 -693 -478 -119 -236 -126 -546 -17
-790 95 -210 282 -389 485 -462 111 -40 182 -52 295 -53 412 -1 761 298 845
724 14 71 14 278 1 342 -95 448 -483 752 -916 717z"/>
<path d="M3835 2813 c-35 -9 -84 -53 -103 -91 -24 -49 -27 -101 -8 -146 21
-51 1629 -1660 1680 -1681 42 -18 93 -19 133 -4 40 15 91 67 104 107 8 25 12
265 11 858 0 816 0 823 -21 866 -11 24 -37 54 -58 68 l-37 25 -840 1 c-463 1
-850 0 -861 -3z"/>
<path d="M98 2460 c-38 -21 -70 -59 -83 -99 -12 -38 -9 -1601 3 -1632 16 -40
69 -87 110 -98 49 -14 4266 -11 4305 2 34 11 85 61 99 96 18 47 17 95 -3 139
-25 59 -1157 1193 -1214 1216 -44 19 -108 15 -151 -7 -16 -9 -168 -156 -339
-327 -202 -203 -324 -319 -350 -331 -48 -23 -94 -24 -141 -4 -22 9 -154 133
-357 336 -177 177 -332 325 -345 330 -41 16 -96 19 -135 7 -29 -9 -84 -58
-236 -210 -110 -109 -203 -198 -206 -198 -4 0 -181 174 -394 387 -223 223
-400 392 -418 400 -45 18 -101 16 -145 -7z"/>
</g>
</svg>
